<?xml version="1.0" encoding="UTF-8"?>
<svg width="156px" height="31px" viewBox="0 0 156 31" version="1.1" xmlns="http://www.w3.org/2000/svg" xmlns:xlink="http://www.w3.org/1999/xlink">
    <!-- Generator: Sketch 48.2 (47327) - http://www.bohemiancoding.com/sketch -->
    <title>Krijstelle L.@2x</title>
    <desc>Created with Sketch.</desc>
    <defs></defs>
    <g id="Page-1" stroke="none" stroke-width="1" fill="none" fill-rule="evenodd">
        <path d="M13.656,6.656 C14.0826688,6.18666432 14.2800002,5.82400128 14.248,5.568 C14.2159998,5.31199872 13.9226694,5.16266688 13.368,5.12 C13.0906653,5.09866656 12.9413334,4.8746688 12.92,4.448 C12.92,4.25599904 12.9733328,4.08533408 13.08,3.936 C13.1866672,3.78666592 13.3253325,3.712 13.496,3.712 C14.0506694,3.75466688 14.6373302,3.78133328 15.256,3.792 C15.8746698,3.80266672 16.4613306,3.808 17.016,3.808 C17.4426688,3.808 17.9279973,3.79733344 18.472,3.776 C19.0160027,3.75466656 19.5013312,3.73333344 19.928,3.712 C20.1413344,3.712 20.2959995,3.78666592 20.392,3.936 C20.4880005,4.08533408 20.536,4.25599904 20.536,4.448 C20.4933331,4.7680016 20.4186672,4.95999968 20.312,5.024 C20.2053328,5.08800032 20.0666675,5.12 19.896,5.12 C19.0853293,5.07733312 18.3013371,5.20533184 17.544,5.504 C16.7866629,5.80266816 15.970671,6.38932896 15.096,7.264 C14.7333315,7.64800192 14.2586696,8.14399696 13.672,8.752 C13.0853304,9.36000304 12.5146694,9.95199712 11.96,10.528 C11.2986634,11.2106701 10.6160035,11.9253296 9.912,12.672 C11.170673,14.2080077 12.4453269,15.6106603 13.736,16.88 C15.0266731,18.1493397 16.1306621,19.2746618 17.048,20.256 C17.4106685,20.6186685 17.7306653,20.9439986 18.008,21.232 C18.2853347,21.5200014 18.557332,21.7653323 18.824,21.968 C19.090668,22.1706677 19.3626653,22.3359994 19.64,22.464 C19.9173347,22.5920006 20.2373315,22.6773331 20.6,22.72 C20.7706675,22.7413334 20.9413325,22.7679998 21.112,22.8 C21.2826675,22.8320002 21.3786666,23.0293315 21.4,23.392 C21.4,23.5626675 21.3573338,23.7226659 21.272,23.872 C21.1866662,24.0213341 21.0373344,24.096 20.824,24.096 C20.482665,24.0746666 20.2106677,24.0586667 20.008,24.048 C19.8053323,24.0373333 19.6133342,24.0266667 19.432,24.016 C19.2506658,24.0053333 19.064001,24 18.872,24 L16.056,24 C14.8826608,22.6986602 13.6826728,21.3600069 12.456,19.984 C11.2293272,18.6079931 9.91200704,17.0986749 8.504,15.456 C8.11999808,15.0079978 7.76266832,14.6933342 7.432,14.512 C7.10133168,14.3306658 6.76533504,14.2186669 6.424,14.176 L6.424,20.256 C6.424,20.5546682 6.43999984,20.8533318 6.472,21.152 C6.50400016,21.4506682 6.58399936,21.7173322 6.712,21.952 C6.84000064,22.1866678 7.04266528,22.3733326 7.32,22.512 C7.59733472,22.6506674 7.99199744,22.72 8.504,22.72 C8.73866784,22.72 8.92533264,22.7413331 9.064,22.784 C9.20266736,22.8266669 9.28266656,23.0293315 9.304,23.392 C9.304,23.5626675 9.26133376,23.7226659 9.176,23.872 C9.09066624,24.0213341 8.9413344,24.096 8.728,24.096 C7.3413264,24.0319997 6.01867296,24 4.76,24 C4.1199968,24 3.49600304,24.0053333 2.888,24.016 C2.27999696,24.0266667 1.63467008,24.0533331 0.952,24.096 C0.7386656,24.096 0.58933376,24.0213341 0.504,23.872 C0.41866624,23.7226659 0.376,23.5626675 0.376,23.392 C0.39733344,23.0293315 0.47733264,22.8266669 0.616,22.784 C0.75466736,22.7413331 0.94133216,22.72 1.176,22.72 C1.68800256,22.72 2.08266528,22.6506674 2.36,22.512 C2.63733472,22.3733326 2.83999936,22.1866678 2.968,21.952 C3.09600064,21.7173322 3.17599984,21.4506682 3.208,21.152 C3.24000016,20.8533318 3.256,20.5546682 3.256,20.256 L3.256,7.552 C3.256,7.25333184 3.24000016,6.95466816 3.208,6.656 C3.17599984,6.35733184 3.09600064,6.09066784 2.968,5.856 C2.83999936,5.62133216 2.63733472,5.43466736 2.36,5.296 C2.08266528,5.15733264 1.68800256,5.088 1.176,5.088 C0.94133216,5.088 0.75466736,5.06666688 0.616,5.024 C0.47733264,4.98133312 0.39733344,4.77866848 0.376,4.416 C0.376,4.22399904 0.41866624,4.05866736 0.504,3.92 C0.58933376,3.78133264 0.7386656,3.712 0.952,3.712 C1.63467008,3.75466688 2.27466368,3.78133328 2.872,3.792 C3.46933632,3.80266672 4.0879968,3.808 4.728,3.808 C6.0080064,3.808 7.3413264,3.77600032 8.728,3.712 C8.9413344,3.712 9.09066624,3.77599936 9.176,3.904 C9.26133376,4.03200064 9.304,4.2026656 9.304,4.416 C9.28266656,4.7360016 9.21333392,4.92799968 9.096,4.992 C8.97866608,5.05600032 8.78133472,5.088 8.504,5.088 C7.99199744,5.088 7.59733472,5.15733264 7.32,5.296 C7.04266528,5.43466736 6.84000064,5.62133216 6.712,5.856 C6.58399936,6.09066784 6.50400016,6.35733184 6.472,6.656 C6.43999984,6.95466816 6.424,7.25333184 6.424,7.552 L6.424,13.344 C6.78666848,13.2586662 7.2079976,13.045335 7.688,12.704 C8.1680024,12.362665 8.65333088,11.9786688 9.144,11.552 C9.95467072,10.8053296 10.7439962,10.0000043 11.512,9.136 C12.2800038,8.27199568 12.9946634,7.44533728 13.656,6.656 Z M24.456,21.52 L24.456,12.56 C24.456,12.293332 24.4080005,12.0586677 24.312,11.856 C24.2159995,11.6533323 24.0560011,11.4933339 23.832,11.376 C23.6079989,11.2586661 23.2720022,11.2 22.824,11.2 C22.631999,11.2 22.4560008,11.1733336 22.296,11.12 C22.1359992,11.0666664 22.056,10.8800016 22.056,10.56 C22.056,10.4319994 22.0986662,10.3146672 22.184,10.208 C22.2693338,10.1013328 22.3973325,10.0266669 22.568,9.984 C23.293337,9.8773328 23.8906643,9.76533392 24.36,9.648 C24.8293357,9.53066608 25.2133318,9.42400048 25.512,9.328 C25.8106682,9.23199952 26.0453325,9.15200032 26.216,9.088 C26.3866675,9.02399968 26.5573325,8.98133344 26.728,8.96 C26.8986675,8.93866656 27.0426661,8.97066624 27.16,9.056 C27.2773339,9.14133376 27.336,9.31199872 27.336,9.568 L27.336,11.552 L27.432,11.552 C28.157337,10.8479965 28.9039962,10.266669 29.672,9.808 C30.4400038,9.34933104 31.1439968,9.12 31.784,9.12 C32.1680019,9.12 32.5039986,9.19466592 32.792,9.344 C33.0800014,9.49333408 33.319999,9.69066544 33.512,9.936 C33.704001,10.1813346 33.8479995,10.4586651 33.944,10.768 C34.0400005,11.0773349 34.088,11.3919984 34.088,11.712 C34.088,11.9893347 34.0453338,12.261332 33.96,12.528 C33.8746662,12.794668 33.7466675,13.0399989 33.576,13.264 C33.4053325,13.4880011 33.1920013,13.6693326 32.936,13.808 C32.6799987,13.9466674 32.381335,14.016 32.04,14.016 C31.698665,14.016 31.4266677,13.9466674 31.224,13.808 C31.0213323,13.6693326 30.9093334,13.5680003 30.888,13.504 C30.888,13.4613331 30.9893323,13.3333344 31.192,13.12 C31.3946677,12.9066656 31.496,12.6400016 31.496,12.32 C31.496,11.9359981 31.3946677,11.6266678 31.192,11.392 C30.9893323,11.1573322 30.717335,11.04 30.376,11.04 C30.0133315,11.04 29.5493362,11.2213315 28.984,11.584 C28.4186638,11.9466685 27.8800026,12.3839974 27.368,12.896 L27.368,21.52 C27.368,21.786668 27.4159995,22.0213323 27.512,22.224 C27.6080005,22.4266677 27.7733322,22.5866661 28.008,22.704 C28.2426678,22.8213339 28.5839978,22.88 29.032,22.88 C29.224001,22.88 29.3893326,22.8959998 29.528,22.928 C29.6666674,22.9600002 29.7466666,23.1359984 29.768,23.456 C29.768,23.6266675 29.7253338,23.7759994 29.64,23.904 C29.5546662,24.0320006 29.4266675,24.096 29.256,24.096 C28.6373302,24.0533331 28.0666693,24.0266667 27.544,24.016 C27.0213307,24.0053333 26.4720029,24 25.896,24 C25.3199971,24 24.7760026,24.0053333 24.264,24.016 C23.7519974,24.0266667 23.1866698,24.0533331 22.568,24.096 C22.3973325,24.096 22.2693338,24.0320006 22.184,23.904 C22.0986662,23.7759994 22.056,23.6266675 22.056,23.456 C22.0986669,23.1359984 22.1839994,22.9600002 22.312,22.928 C22.4400006,22.8959998 22.6106656,22.88 22.824,22.88 C23.2720022,22.88 23.6079989,22.8213339 23.832,22.704 C24.0560011,22.5866661 24.2159995,22.4266677 24.312,22.224 C24.4080005,22.0213323 24.456,21.786668 24.456,21.52 Z M38.808,5.088 C38.5733321,5.088 38.3333345,5.05600032 38.088,4.992 C37.8426654,4.92799968 37.6186677,4.8160008 37.416,4.656 C37.2133323,4.4959992 37.0426673,4.29333456 36.904,4.048 C36.7653326,3.80266544 36.696,3.49866848 36.696,3.136 C36.696,2.96533248 36.7439995,2.76800112 36.84,2.544 C36.9360005,2.31999888 37.0853323,2.11200096 37.288,1.92 C37.4906677,1.72799904 37.7413318,1.56800064 38.04,1.44 C38.3386681,1.31199936 38.6906646,1.248 39.096,1.248 C39.2880009,1.248 39.4906656,1.28533296 39.704,1.36 C39.9173344,1.43466704 40.1146657,1.5519992 40.296,1.712 C40.4773342,1.8720008 40.6266661,2.07466544 40.744,2.32 C40.8613339,2.56533456 40.92,2.86933152 40.92,3.232 C40.92,3.68000224 40.7386685,4.10133136 40.376,4.496 C40.0133315,4.89066864 39.4906701,5.088 38.808,5.088 Z M40.6,9.568 L40.6,21.52 C40.6,21.786668 40.6479995,22.0213323 40.744,22.224 C40.8400005,22.4266677 41.0053321,22.5866661 41.24,22.704 C41.4746678,22.8213339 41.8159977,22.88 42.264,22.88 C42.4560009,22.88 42.6213326,22.8959998 42.76,22.928 C42.8986673,22.9600002 42.9786665,23.1359984 43,23.456 C43,23.6266675 42.9573337,23.7759994 42.872,23.904 C42.7866662,24.0320006 42.6586675,24.096 42.488,24.096 C41.8693302,24.0533331 41.2986693,24.0266667 40.776,24.016 C40.2533307,24.0053333 39.7040029,24 39.128,24 C38.5519971,24 38.0080025,24.0053333 37.496,24.016 C36.9839974,24.0266667 36.4186697,24.0533331 35.8,24.096 C35.6293325,24.096 35.5013337,24.0320006 35.416,23.904 C35.3306662,23.7759994 35.288,23.6266675 35.288,23.456 C35.3306669,23.1359984 35.4159993,22.9600002 35.544,22.928 C35.6720006,22.8959998 35.8426656,22.88 36.056,22.88 C36.5040022,22.88 36.8399989,22.8213339 37.064,22.704 C37.2880011,22.5866661 37.4479995,22.4266677 37.544,22.224 C37.6400005,22.0213323 37.688,21.786668 37.688,21.52 L37.688,12.56 C37.688,12.293332 37.6400005,12.0586677 37.544,11.856 C37.4479995,11.6533323 37.2880011,11.4933339 37.064,11.376 C36.8399989,11.2586661 36.5040022,11.2 36.056,11.2 C35.863999,11.2 35.6880008,11.1733336 35.528,11.12 C35.3679992,11.0666664 35.288,10.8800016 35.288,10.56 C35.288,10.4319994 35.3306662,10.3146672 35.416,10.208 C35.5013337,10.1013328 35.6293325,10.0266669 35.8,9.984 C36.5253369,9.8773328 37.1226643,9.76533392 37.592,9.648 C38.0613357,9.53066608 38.4453318,9.42400048 38.744,9.328 C39.0426681,9.23199952 39.2826657,9.15200032 39.464,9.088 C39.6453342,9.02399968 39.8213325,8.98133344 39.992,8.96 C40.1626675,8.93866656 40.3066661,8.97066624 40.424,9.056 C40.5413339,9.14133376 40.6,9.31199872 40.6,9.568 Z M46.312,19.808 L46.312,12.56 C46.312,12.293332 46.2640005,12.0586677 46.168,11.856 C46.0719995,11.6533323 45.9120011,11.4933339 45.688,11.376 C45.4639989,11.2586661 45.1280022,11.2 44.68,11.2 C44.487999,11.2 44.3120008,11.1733336 44.152,11.12 C43.9919992,11.0666664 43.912,10.8800016 43.912,10.56 C43.912,10.4319994 43.9546662,10.3146672 44.04,10.208 C44.1253337,10.1013328 44.2533325,10.0266669 44.424,9.984 C45.1493369,9.8773328 45.7466643,9.76533392 46.216,9.648 C46.6853357,9.53066608 47.0693318,9.42400048 47.368,9.328 C47.6666681,9.23199952 47.9066657,9.15200032 48.088,9.088 C48.2693342,9.02399968 48.4453325,8.98133344 48.616,8.96 C48.7866675,8.93866656 48.9306661,8.97066624 49.048,9.056 C49.1653339,9.14133376 49.224,9.31199872 49.224,9.568 L49.224,20.832 C49.224,22.0480061 49.1280009,23.1839947 48.936,24.24 C48.743999,25.2960053 48.4186689,26.2506624 47.96,27.104 C47.501331,27.9573376 46.8933371,28.6773304 46.136,29.264 C45.3786629,29.8506696 44.4346723,30.2826653 43.304,30.56 C43.1333325,30.6026669 43.0053337,30.586667 42.92,30.512 C42.8346662,30.437333 42.7493337,30.304001 42.664,30.112 C42.6213331,29.9413325 42.6106665,29.7866674 42.632,29.648 C42.6533334,29.5093326 42.7493325,29.4080003 42.92,29.344 C43.6880038,29.0239984 44.301331,28.5920027 44.76,28.048 C45.2186689,27.5039973 45.5599989,26.8373373 45.784,26.048 C46.0080011,25.2586627 46.1519997,24.3466718 46.216,23.312 C46.2800003,22.2773282 46.312,21.1093398 46.312,19.808 Z M46.92,5.088 C46.6853321,5.088 46.4453345,5.05600032 46.2,4.992 C45.9546654,4.92799968 45.7306677,4.8160008 45.528,4.656 C45.3253323,4.4959992 45.1546673,4.29333456 45.016,4.048 C44.8773326,3.80266544 44.808,3.49866848 44.808,3.136 C44.808,2.96533248 44.8559995,2.76800112 44.952,2.544 C45.0480005,2.31999888 45.1973323,2.11200096 45.4,1.92 C45.6026677,1.72799904 45.8533318,1.56800064 46.152,1.44 C46.4506681,1.31199936 46.8026646,1.248 47.208,1.248 C47.4000009,1.248 47.6026656,1.28533296 47.816,1.36 C48.0293344,1.43466704 48.2266657,1.5519992 48.408,1.712 C48.5893342,1.8720008 48.7386661,2.07466544 48.856,2.32 C48.9733339,2.56533456 49.032,2.86933152 49.032,3.232 C49.032,3.68000224 48.8506685,4.10133136 48.488,4.496 C48.1253315,4.89066864 47.6026701,5.088 46.92,5.088 Z M58.264,24.384 C57.4319958,24.384 56.6640035,24.3093341 55.96,24.16 C55.2559965,24.0106659 54.6480025,23.7920014 54.136,23.504 C53.6239974,23.2159986 53.2240014,22.8586688 52.936,22.432 C52.6479985,22.0053312 52.504,21.5146694 52.504,20.96 C52.504,20.3413302 52.6906648,19.8400019 53.064,19.456 C53.4373352,19.0719981 53.9226637,18.88 54.52,18.88 C54.9040019,18.88 55.2186654,18.9813323 55.464,19.184 C55.7093345,19.3866677 55.832,19.5306662 55.832,19.616 C55.832,19.6586669 55.794667,19.7119997 55.72,19.776 C55.6453329,19.8400003 55.5600005,19.9306661 55.464,20.048 C55.3679995,20.1653339 55.282667,20.3146658 55.208,20.496 C55.1333329,20.6773342 55.096,20.8853322 55.096,21.12 C55.096,21.7386698 55.3786638,22.2399981 55.944,22.624 C56.5093361,23.0080019 57.3679942,23.2 58.52,23.2 C59.5226717,23.2 60.3066638,22.9866688 60.872,22.56 C61.4373361,22.1333312 61.72,21.5146707 61.72,20.704 C61.72,20.0639968 61.5066688,19.573335 61.08,19.232 C60.6533312,18.890665 60.1200032,18.6026678 59.48,18.368 C58.8399968,18.1333322 58.1466704,17.920001 57.4,17.728 C56.6533296,17.535999 55.9600032,17.269335 55.32,16.928 C54.6799968,16.586665 54.1466688,16.1386694 53.72,15.584 C53.2933312,15.0293306 53.08,14.2826714 53.08,13.344 C53.08,12.6399965 53.2506649,12.021336 53.592,11.488 C53.933335,10.954664 54.3813305,10.5120018 54.936,10.16 C55.4906694,9.80799824 56.1093299,9.54666752 56.792,9.376 C57.4746701,9.20533248 58.1679965,9.12 58.872,9.12 C59.4480029,9.12 60.0186638,9.18399936 60.584,9.312 C61.1493361,9.44000064 61.6506645,9.63199872 62.088,9.888 C62.5253355,10.1440013 62.877332,10.4586648 63.144,10.832 C63.410668,11.2053352 63.544,11.6479974 63.544,12.16 C63.544,12.7146694 63.373335,13.1999979 63.032,13.616 C62.6906649,14.0320021 62.2213363,14.24 61.624,14.24 C61.2399981,14.24 60.9253345,14.1386677 60.68,13.936 C60.4346654,13.7333323 60.312,13.5893338 60.312,13.504 C60.312,13.4826666 60.3599995,13.434667 60.456,13.36 C60.5520005,13.285333 60.6586661,13.1893339 60.776,13.072 C60.8933339,12.9546661 60.9999995,12.8053342 61.096,12.624 C61.1920005,12.4426658 61.24,12.2346678 61.24,12 C61.2186665,11.7013318 61.1280008,11.4346678 60.968,11.2 C60.8079992,10.9653322 60.6000013,10.7733341 60.344,10.624 C60.0879987,10.4746659 59.8000016,10.362667 59.48,10.288 C59.1599984,10.213333 58.829335,10.176 58.488,10.176 C58.1039981,10.176 57.7306685,10.2239995 57.368,10.32 C57.0053315,10.4160005 56.6800014,10.5493325 56.392,10.72 C56.1039985,10.8906675 55.8746675,11.109332 55.704,11.376 C55.5333325,11.642668 55.448,11.946665 55.448,12.288 C55.448,12.7573357 55.5226659,13.1413318 55.672,13.44 C55.8213341,13.7386682 56.0559984,13.9999989 56.376,14.224 C56.6960016,14.4480011 57.1066641,14.6506658 57.608,14.832 C58.1093358,15.0133342 58.7119965,15.2106656 59.416,15.424 C60.1200035,15.6586678 60.7599971,15.8879989 61.336,16.112 C61.9120029,16.3360011 62.4079979,16.6026651 62.824,16.912 C63.2400021,17.2213349 63.5653321,17.605331 63.8,18.064 C64.0346678,18.522669 64.152,19.0826634 64.152,19.744 C64.152,20.4266701 64.0026681,21.0506638 63.704,21.616 C63.4053318,22.1813362 62.9946693,22.6666646 62.472,23.072 C61.9493307,23.4773354 61.3306702,23.7973322 60.616,24.032 C59.9013297,24.2666678 59.1173376,24.384 58.264,24.384 Z M71.08,10.752 L71.08,20.48 C71.08,20.8000016 71.1119997,21.1039986 71.176,21.392 C71.2400003,21.6800014 71.3413326,21.9413322 71.48,22.176 C71.6186673,22.4106678 71.8053321,22.5973326 72.04,22.736 C72.2746678,22.8746674 72.5733315,22.944 72.936,22.944 C73.1706678,22.944 73.4319985,22.9280002 73.72,22.896 C74.0080014,22.8639998 74.3333315,22.7626675 74.696,22.592 C74.7813337,22.5493331 74.8666662,22.5120002 74.952,22.48 C75.0373337,22.4479998 75.1226662,22.432 75.208,22.432 C75.3786675,22.432 75.5066662,22.5013326 75.592,22.64 C75.6773337,22.7786674 75.7519997,22.9226659 75.816,23.072 C75.8800003,23.264001 75.8266675,23.4133328 75.656,23.52 C74.9946633,23.9466688 74.3866694,24.2239994 73.832,24.352 C73.2773305,24.4800006 72.6586701,24.544 71.976,24.544 C71.4853309,24.544 71.0160022,24.4533342 70.568,24.272 C70.1199977,24.0906658 69.7146685,23.8186685 69.352,23.456 C68.9893315,23.0933315 68.7013344,22.6293362 68.488,22.064 C68.2746656,21.4986638 68.168,20.8426704 68.168,20.096 L68.168,10.688 L66.312,10.752 C66.1626659,10.752 66.050667,10.6933339 65.976,10.576 C65.9013329,10.4586661 65.864,10.3253341 65.864,10.176 C65.864,10.0053325 65.9013329,9.85066736 65.976,9.712 C66.050667,9.57333264 66.1626659,9.48266688 66.312,9.44 C66.9093363,9.3333328 67.3893315,9.16266784 67.752,8.928 C68.1146685,8.69333216 68.4133321,8.42133488 68.648,8.112 C68.8826678,7.80266512 69.0746659,7.45066864 69.224,7.056 C69.3733341,6.66133136 69.5226659,6.2506688 69.672,5.824 C69.7360003,5.65333248 69.8266661,5.5413336 69.944,5.488 C70.0613339,5.4346664 70.2053325,5.408 70.376,5.408 C70.5040006,5.408 70.6479992,5.43999968 70.808,5.504 C70.9680008,5.56800032 71.048,5.68533248 71.048,5.856 L70.824,9.504 L74.568,9.28 C74.7600009,9.25866656 74.8879997,9.31199936 74.952,9.44 C75.0160003,9.56800064 75.048,9.71733248 75.048,9.888 C75.048,10.1226678 75.010667,10.3413323 74.936,10.544 C74.8613329,10.7466677 74.7706672,10.848 74.664,10.848 L71.08,10.752 Z M86.584,15.104 C87.0960025,15.104 87.5013318,15.0026677 87.8,14.8 C88.0986681,14.5973323 88.2693331,14.2506691 88.312,13.76 C88.312,13.3119978 88.2480006,12.8746688 88.12,12.448 C87.9919993,12.0213312 87.8000012,11.6426683 87.544,11.312 C87.2879987,10.9813317 86.9680019,10.720001 86.584,10.528 C86.199998,10.335999 85.7520025,10.24 85.24,10.24 C84.1519945,10.24 83.2560035,10.6666624 82.552,11.52 C81.8479964,12.3733376 81.4533337,13.5679923 81.368,15.104 L86.584,15.104 Z M91.544,21.024 C90.8826633,22.0693386 90.0506716,22.8906637 89.048,23.488 C88.0453283,24.0853363 86.8933398,24.384 85.592,24.384 C84.3546604,24.384 83.2666713,24.1813354 82.328,23.776 C81.3893286,23.3706646 80.6106697,22.8160035 79.992,22.112 C79.3733302,21.4079965 78.9040016,20.5866714 78.584,19.648 C78.2639984,18.7093286 78.104,17.7173386 78.104,16.672 C78.104,15.7546621 78.2693316,14.8426712 78.6,13.936 C78.9306683,13.0293288 79.4053302,12.2186702 80.024,11.504 C80.6426697,10.7893298 81.3893289,10.2133355 82.264,9.776 C83.138671,9.33866448 84.1306611,9.12 85.24,9.12 C86.2213382,9.12 87.0799963,9.253332 87.816,9.52 C88.5520036,9.786668 89.1706641,10.1599976 89.672,10.64 C90.1733358,11.1200024 90.5679985,11.6906634 90.856,12.352 C91.1440014,13.0133366 91.3199996,13.7279962 91.384,14.496 C91.384,15.2426704 91.176002,15.7333322 90.76,15.968 C90.3439979,16.2026678 89.8053366,16.32 89.144,16.32 L81.368,16.32 C81.368,17.2586714 81.463999,18.1226627 81.656,18.912 C81.8480009,19.7013373 82.1466646,20.3839971 82.552,20.96 C82.9573353,21.5360029 83.4799968,21.9839984 84.12,22.304 C84.7600032,22.6240016 85.5279955,22.784 86.424,22.784 C87.3200044,22.784 88.0879968,22.5920019 88.728,22.208 C89.3680032,21.8239981 89.9866636,21.1520048 90.584,20.192 C90.7546675,19.9786656 90.9893318,19.967999 91.288,20.16 C91.4586675,20.2666672 91.5653331,20.4053325 91.608,20.576 C91.6506668,20.7466675 91.6293337,20.8959994 91.544,21.024 Z M95.592,20.704 L95.592,4.272 C95.592,4.005332 95.5440004,3.77066768 95.448,3.568 C95.3519995,3.36533232 95.1920011,3.20533392 94.968,3.088 C94.7439988,2.97066608 94.4080022,2.912 93.96,2.912 C93.767999,2.912 93.5920008,2.8853336 93.432,2.832 C93.2719992,2.7786664 93.192,2.5920016 93.192,2.272 C93.192,2.14399936 93.2346662,2.0266672 93.32,1.92 C93.4053337,1.8133328 93.5333324,1.73866688 93.704,1.696 C94.4293369,1.5893328 95.0266643,1.47733392 95.496,1.36 C95.9653356,1.24266608 96.3493318,1.13600048 96.648,1.04 C96.9466681,0.94399952 97.1866657,0.86400032 97.368,0.8 C97.5493342,0.73599968 97.7253324,0.69333344 97.896,0.672 C98.0666675,0.65066656 98.210666,0.68266624 98.328,0.768 C98.4453339,0.85333376 98.504,1.02399872 98.504,1.28 L98.504,21.52 C98.504,21.786668 98.5519995,22.0213323 98.648,22.224 C98.7440004,22.4266677 98.9093321,22.5866661 99.144,22.704 C99.3786678,22.8213339 99.7199977,22.88 100.168,22.88 C100.360001,22.88 100.525333,22.8959998 100.664,22.928 C100.802667,22.9600002 100.882667,23.1359984 100.904,23.456 C100.904,23.6266675 100.861334,23.7759994 100.776,23.904 C100.690666,24.0320006 100.562667,24.096 100.392,24.096 C99.7733302,24.0533331 99.2026692,24.0266667 98.68,24.016 C98.1573307,24.0053333 97.6080028,24 97.032,24 C96.4559971,24 95.9120025,24.0053333 95.4,24.016 C94.8879974,24.0266667 94.3226697,24.0533331 93.704,24.096 C93.5333324,24.096 93.4053337,24.0320006 93.32,23.904 C93.2346662,23.7759994 93.192,23.6266675 93.192,23.456 C93.2133334,23.1359984 93.2933326,22.9600002 93.432,22.928 C93.5706673,22.8959998 93.735999,22.88 93.928,22.88 C94.3760022,22.88 94.7119988,22.8213339 94.936,22.704 C95.1600011,22.5866661 95.3199995,22.4266677 95.416,22.224 C95.5120004,22.0213323 95.5653332,21.786668 95.576,21.52 C95.5866667,21.253332 95.592,20.9813347 95.592,20.704 Z M104.344,20.704 L104.344,4.272 C104.344,4.005332 104.296,3.77066768 104.2,3.568 C104.103999,3.36533232 103.944001,3.20533392 103.72,3.088 C103.495999,2.97066608 103.160002,2.912 102.712,2.912 C102.519999,2.912 102.344001,2.8853336 102.184,2.832 C102.023999,2.7786664 101.944,2.5920016 101.944,2.272 C101.944,2.14399936 101.986666,2.0266672 102.072,1.92 C102.157334,1.8133328 102.285332,1.73866688 102.456,1.696 C103.181337,1.5893328 103.778664,1.47733392 104.248,1.36 C104.717336,1.24266608 105.101332,1.13600048 105.4,1.04 C105.698668,0.94399952 105.938666,0.86400032 106.12,0.8 C106.301334,0.73599968 106.477332,0.69333344 106.648,0.672 C106.818667,0.65066656 106.962666,0.68266624 107.08,0.768 C107.197334,0.85333376 107.256,1.02399872 107.256,1.28 L107.256,21.52 C107.256,21.786668 107.303999,22.0213323 107.4,22.224 C107.496,22.4266677 107.661332,22.5866661 107.896,22.704 C108.130668,22.8213339 108.471998,22.88 108.92,22.88 C109.112001,22.88 109.277333,22.8959998 109.416,22.928 C109.554667,22.9600002 109.634667,23.1359984 109.656,23.456 C109.656,23.6266675 109.613334,23.7759994 109.528,23.904 C109.442666,24.0320006 109.314667,24.096 109.144,24.096 C108.52533,24.0533331 107.954669,24.0266667 107.432,24.016 C106.909331,24.0053333 106.360003,24 105.784,24 C105.207997,24 104.664003,24.0053333 104.152,24.016 C103.639997,24.0266667 103.07467,24.0533331 102.456,24.096 C102.285332,24.096 102.157334,24.0320006 102.072,23.904 C101.986666,23.7759994 101.944,23.6266675 101.944,23.456 C101.965333,23.1359984 102.045333,22.9600002 102.184,22.928 C102.322667,22.8959998 102.487999,22.88 102.68,22.88 C103.128002,22.88 103.463999,22.8213339 103.688,22.704 C103.912001,22.5866661 104.071999,22.4266677 104.168,22.224 C104.264,22.0213323 104.317333,21.786668 104.328,21.52 C104.338667,21.253332 104.344,20.9813347 104.344,20.704 Z M119.528,15.104 C120.040003,15.104 120.445332,15.0026677 120.744,14.8 C121.042668,14.5973323 121.213333,14.2506691 121.256,13.76 C121.256,13.3119978 121.192001,12.8746688 121.064,12.448 C120.935999,12.0213312 120.744001,11.6426683 120.488,11.312 C120.231999,10.9813317 119.912002,10.720001 119.528,10.528 C119.143998,10.335999 118.696003,10.24 118.184,10.24 C117.095995,10.24 116.200003,10.6666624 115.496,11.52 C114.791996,12.3733376 114.397334,13.5679923 114.312,15.104 L119.528,15.104 Z M124.488,21.024 C123.826663,22.0693386 122.994672,22.8906637 121.992,23.488 C120.989328,24.0853363 119.83734,24.384 118.536,24.384 C117.29866,24.384 116.210671,24.1813354 115.272,23.776 C114.333329,23.3706646 113.55467,22.8160035 112.936,22.112 C112.31733,21.4079965 111.848002,20.5866714 111.528,19.648 C111.207998,18.7093286 111.048,17.7173386 111.048,16.672 C111.048,15.7546621 111.213332,14.8426712 111.544,13.936 C111.874668,13.0293288 112.34933,12.2186702 112.968,11.504 C113.58667,10.7893298 114.333329,10.2133355 115.208,9.776 C116.082671,9.33866448 117.074661,9.12 118.184,9.12 C119.165338,9.12 120.023996,9.253332 120.76,9.52 C121.496004,9.786668 122.114664,10.1599976 122.616,10.64 C123.117336,11.1200024 123.511999,11.6906634 123.8,12.352 C124.088001,13.0133366 124.264,13.7279962 124.328,14.496 C124.328,15.2426704 124.120002,15.7333322 123.704,15.968 C123.287998,16.2026678 122.749337,16.32 122.088,16.32 L114.312,16.32 C114.312,17.2586714 114.407999,18.1226627 114.6,18.912 C114.792001,19.7013373 115.090665,20.3839971 115.496,20.96 C115.901335,21.5360029 116.423997,21.9839984 117.064,22.304 C117.704003,22.6240016 118.471995,22.784 119.368,22.784 C120.264004,22.784 121.031997,22.5920019 121.672,22.208 C122.312003,21.8239981 122.930664,21.1520048 123.528,20.192 C123.698667,19.9786656 123.933332,19.967999 124.232,20.16 C124.402667,20.2666672 124.509333,20.4053325 124.552,20.576 C124.594667,20.7466675 124.573334,20.8959994 124.488,21.024 Z M139.56,20.736 C139.581333,20.9493344 139.602666,21.1733322 139.624,21.408 C139.645333,21.6426678 139.725333,21.8613323 139.864,22.064 C140.002667,22.2666677 140.221332,22.4319994 140.52,22.56 C140.818668,22.6880006 141.24533,22.7413334 141.8,22.72 L144.68,22.72 C145.234669,22.6986666 145.687998,22.6293339 146.04,22.512 C146.392002,22.3946661 146.685332,22.1920014 146.92,21.904 C147.154668,21.6159986 147.357332,21.2373357 147.528,20.768 C147.698667,20.2986643 147.890666,19.7120035 148.104,19.008 C148.189334,18.7946656 148.333332,18.6560003 148.536,18.592 C148.738668,18.5279997 148.957332,18.5173331 149.192,18.56 C149.362667,18.6026669 149.538666,18.6826661 149.72,18.8 C149.901334,18.9173339 149.981333,19.0826656 149.96,19.296 L149.32,23.328 C149.256,23.6266682 149.154667,23.813333 149.016,23.888 C148.877333,23.962667 148.669335,24 148.392,24 L137.896,24 C137.255997,24 136.632003,24.0053333 136.024,24.016 C135.415997,24.0266667 134.760003,24.0533331 134.056,24.096 C133.863999,24.096 133.725334,24.0213341 133.64,23.872 C133.554666,23.7226659 133.512,23.5626675 133.512,23.392 C133.533333,23.0719984 133.613333,22.8800003 133.752,22.816 C133.890667,22.7519997 134.077332,22.72 134.312,22.72 C134.824002,22.72 135.218665,22.6506674 135.496,22.512 C135.773335,22.3733326 135.975999,22.1866678 136.104,21.952 C136.232001,21.7173322 136.312,21.4506682 136.344,21.152 C136.376,20.8533318 136.392,20.5546682 136.392,20.256 L136.392,7.552 C136.392,7.25333184 136.376,6.95466816 136.344,6.656 C136.312,6.35733184 136.232001,6.09066784 136.104,5.856 C135.975999,5.62133216 135.773335,5.43466736 135.496,5.296 C135.218665,5.15733264 134.824002,5.088 134.312,5.088 C134.077332,5.088 133.890667,5.0613336 133.752,5.008 C133.613333,4.9546664 133.533333,4.75733504 133.512,4.416 C133.512,4.2026656 133.554666,4.03200064 133.64,3.904 C133.725334,3.77599936 133.863999,3.712 134.056,3.712 C134.760003,3.75466688 135.410664,3.78133328 136.008,3.792 C136.605336,3.80266672 137.223997,3.808 137.864,3.808 C139.144006,3.808 140.477326,3.77600032 141.864,3.712 C142.077334,3.712 142.226666,3.78666592 142.312,3.936 C142.397334,4.08533408 142.44,4.24533248 142.44,4.416 C142.418666,4.77866848 142.333334,4.98133312 142.184,5.024 C142.034666,5.06666688 141.853334,5.088 141.64,5.088 C141.127997,5.088 140.733335,5.15733264 140.456,5.296 C140.178665,5.43466736 139.976001,5.62133216 139.848,5.856 C139.719999,6.09066784 139.64,6.35733184 139.608,6.656 C139.576,6.95466816 139.56,7.25333184 139.56,7.552 L139.56,20.736 Z M153.528,24.384 C152.951997,24.384 152.472002,24.2026685 152.088,23.84 C151.703998,23.4773315 151.512,22.9866698 151.512,22.368 C151.512,21.8133306 151.703998,21.3440019 152.088,20.96 C152.472002,20.5759981 152.962664,20.384 153.56,20.384 C154.136003,20.384 154.621331,20.5759981 155.016,20.96 C155.410669,21.3440019 155.608,21.8133306 155.608,22.368 C155.608,22.9866698 155.410669,23.4773315 155.016,23.84 C154.621331,24.2026685 154.125336,24.384 153.528,24.384 Z" id="Krijstelle-L." fill="#323B46"></path>
    </g>
</svg>